<svg id="geopattern-tmp" width="312" height="312" xmlns="http://www.w3.org/2000/svg"><desc>Created with Snap</desc><defs></defs><circle cx="0" cy="0" r="52" fill="#dddddd" style="opacity: 0.04133333333333333;"></circle><circle cx="312" cy="0" r="52" fill="#dddddd" style="opacity: 0.04133333333333333;"></circle><circle cx="0" cy="312" r="52" fill="#dddddd" style="opacity: 0.04133333333333333;"></circle><circle cx="312" cy="312" r="52" fill="#dddddd" style="opacity: 0.04133333333333333;"></circle><circle cx="52" cy="0" r="52" fill="#222222" style="opacity: 0.05733333333333333;"></circle><circle cx="52" cy="312" r="52" fill="#222222" style="opacity: 0.05733333333333333;"></circle><circle cx="104" cy="0" r="52" fill="#dddddd" style="opacity: 0.02;"></circle><circle cx="104" cy="312" r="52" fill="#dddddd" style="opacity: 0.02;"></circle><circle cx="156" cy="0" r="52" fill="#222222" style="opacity: 0.025333333333333333;"></circle><circle cx="156" cy="312" r="52" fill="#222222" style="opacity: 0.025333333333333333;"></circle><circle cx="208" cy="0" r="52" fill="#222222" style="opacity: 0.025333333333333333;"></circle><circle cx="208" cy="312" r="52" fill="#222222" style="opacity: 0.025333333333333333;"></circle><circle cx="260" cy="0" r="52" fill="#dddddd" style="opacity: 0.052000000000000005;"></circle><circle cx="260" cy="312" r="52" fill="#dddddd" style="opacity: 0.052000000000000005;"></circle><circle cx="0" cy="52" r="52" fill="#222222" style="opacity: 0.068;"></circle><circle cx="312" cy="52" r="52" fill="#222222" style="opacity: 0.068;"></circle><circle cx="52" cy="52" r="52" fill="#dddddd" style="opacity: 0.02;"></circle><circle cx="104" cy="52" r="52" fill="#dddddd" style="opacity: 0.07333333333333333;"></circle><circle cx="156" cy="52" r="52" fill="#dddddd" style="opacity: 0.09466666666666668;"></circle><circle cx="208" cy="52" r="52" fill="#dddddd" style="opacity: 0.06266666666666666;"></circle><circle cx="260" cy="52" r="52" fill="#222222" style="opacity: 0.05733333333333333;"></circle><circle cx="0" cy="104" r="52" fill="#222222" style="opacity: 0.07866666666666666;"></circle><circle cx="312" cy="104" r="52" fill="#222222" style="opacity: 0.07866666666666666;"></circle><circle cx="52" cy="104" r="52" fill="#222222" style="opacity: 0.08933333333333333;"></circle><circle cx="104" cy="104" r="52" fill="#dddddd" style="opacity: 0.052000000000000005;"></circle><circle cx="156" cy="104" r="52" fill="#222222" style="opacity: 0.025333333333333333;"></circle><circle cx="208" cy="104" r="52" fill="#dddddd" style="opacity: 0.02;"></circle><circle cx="260" cy="104" r="52" fill="#dddddd" style="opacity: 0.03066666666666667;"></circle><circle cx="0" cy="156" r="52" fill="#dddddd" style="opacity: 0.084;"></circle><circle cx="312" cy="156" r="52" fill="#dddddd" style="opacity: 0.084;"></circle><circle cx="52" cy="156" r="52" fill="#dddddd" style="opacity: 0.02;"></circle><circle cx="104" cy="156" r="52" fill="#222222" style="opacity: 0.025333333333333333;"></circle><circle cx="156" cy="156" r="52" fill="#dddddd" style="opacity: 0.052000000000000005;"></circle><circle cx="208" cy="156" r="52" fill="#222222" style="opacity: 0.1;"></circle><circle cx="260" cy="156" r="52" fill="#222222" style="opacity: 0.025333333333333333;"></circle><circle cx="0" cy="208" r="52" fill="#dddddd" style="opacity: 0.04133333333333333;"></circle><circle cx="312" cy="208" r="52" fill="#dddddd" style="opacity: 0.04133333333333333;"></circle><circle cx="52" cy="208" r="52" fill="#dddddd" style="opacity: 0.04133333333333333;"></circle><circle cx="104" cy="208" r="52" fill="#dddddd" style="opacity: 0.06266666666666666;"></circle><circle cx="156" cy="208" r="52" fill="#222222" style="opacity: 0.04666666666666667;"></circle><circle cx="208" cy="208" r="52" fill="#222222" style="opacity: 0.05733333333333333;"></circle><circle cx="260" cy="208" r="52" fill="#222222" style="opacity: 0.07866666666666666;"></circle><circle cx="0" cy="260" r="52" fill="#222222" style="opacity: 0.05733333333333333;"></circle><circle cx="312" cy="260" r="52" fill="#222222" style="opacity: 0.05733333333333333;"></circle><circle cx="52" cy="260" r="52" fill="#dddddd" style="opacity: 0.09466666666666668;"></circle><circle cx="104" cy="260" r="52" fill="#dddddd" style="opacity: 0.04133333333333333;"></circle><circle cx="156" cy="260" r="52" fill="#dddddd" style="opacity: 0.09466666666666668;"></circle><circle cx="208" cy="260" r="52" fill="#222222" style="opacity: 0.036000000000000004;"></circle><circle cx="260" cy="260" r="52" fill="#222222" style="opacity: 0.07866666666666666;"></circle></svg>